<?xml version="1.0" encoding="iso-8859-1"?>
<!-- Generator: Adobe Illustrator 22.1.0, SVG Export Plug-In . SVG Version: 6.00 Build 0)  -->
<svg xmlns="http://www.w3.org/2000/svg" xmlns:xlink="http://www.w3.org/1999/xlink" version="1.1" id="Layer_1_1_" x="0px" y="0px" viewBox="0 0 64 64" style="enable-background:new 0 0 64 64;" xml:space="preserve" width="512" height="512">
<g>
	<path d="M63,17v-6h-4V1H49v10h-4v6h2v2h-2v6h5v6h3v25c0,1.654-1.346,3-3,3H38v4h2v-2h10c2.757,0,5-2.243,5-5V31h3v-6h5v-6h-2v-2H63   z M61,15h-6v-1c0-0.552,0.449-1,1-1h5V15z M51,3h6v8h-1c-0.771,0-1.468,0.301-2,0.78c-0.532-0.48-1.229-0.78-2-0.78h-1V3z M47,13h5   c0.551,0,1,0.448,1,1v1h-6V13z M55,23v-2h2v2H55z M53,23h-2v-2h2V23z M47,21h2v2h-2V21z M56,29h-4v-4h4V29z M61,23h-2v-2h2V23z    M59,19H49v-2h4h2h4V19z"/>
	<path d="M22,59h-7c-1.654,0-3-1.346-3-3V33h2v-6h2v-4c2.757,0,5-2.243,5-5V7h-2V1H3v6H1v11c0,2.757,2.243,5,5,5v4h2v6h2v23   c0,2.757,2.243,5,5,5h9v-4h-2V59z M5,3h12v4H5V3z M9,9h4v6H9V9z M3,18V9h4v8h8V9h4v9c0,1.654-1.346,3-3,3H6C4.346,21,3,19.654,3,18   z M14,23v2H8v-2H14z M12,27v4h-2v-4H12z"/>
	<rect x="26" y="57" width="2" height="6"/>
	<rect x="30" y="57" width="2" height="6"/>
	<rect x="34" y="57" width="2" height="6"/>
</g>
</svg>
