<?xml version="1.0" encoding="iso-8859-1"?>
<!-- Generator: Adobe Illustrator 19.0.0, SVG Export Plug-In . SVG Version: 6.00 Build 0)  -->
<svg xmlns="http://www.w3.org/2000/svg" xmlns:xlink="http://www.w3.org/1999/xlink" version="1.1" id="Layer_1" x="0px" y="0px" viewBox="0 0 512 512" style="enable-background:new 0 0 512 512;" xml:space="preserve" width="512" height="512">
<g>
	<path d="M512,181v-30h-61V61h-90V0h-30v61h-60V0h-30v61h-60V0h-30v61H61v90H0v30h61v60H0v30h61v60H0v30h61v90h90v61h30v-61h60v61   h30v-61h60v61h30v-61h90v-90h61v-30h-61v-60h61v-30h-61v-60H512z M121,121h30v30h-30V121z M151,391h-30v-30h30V391z M331,331v30   h-30v-30h-30v30h-30v-30h-30v30h-30v-30h-30v-30h30v-30h-30v-30h30v-30h-30v-30h30v-30h30v30h30v-30h30v30h30v-30h30v30h30v30h-30   v30h30v30h-30v30h30v30H331z M391,391h-30v-30h30V391z M391,151h-30v-30h30V151z"/>
	<path d="M211,301h90v-90h-90V301z M241,241h30v30h-30V241z"/>
</g>















</svg>
